<?xml version="1.0" encoding="UTF-8"?>
<svg id="_Слой_2" data-name="Слой 2" xmlns="http://www.w3.org/2000/svg" xmlns:xlink="http://www.w3.org/1999/xlink" viewBox="0 0 472.01 179.13">
  <defs>
    <style>
      .cls-1 {
        fill: #1f1f1f;
      }

      .cls-2 {
        fill: url(#_Безымянный_градиент_7-2);
      }

      .cls-3 {
        fill: url(#_Безымянный_градиент_7);
      }
    </style>
    <linearGradient id="_Безымянный_градиент_7" data-name="Безымянный градиент 7" x1="-24.68" y1="156.29" x2="182.56" y2="156.29" gradientUnits="userSpaceOnUse">
      <stop offset="0" stop-color="#f05a30"/>
      <stop offset=".5" stop-color="#ec1c24"/>
      <stop offset="1" stop-color="#d0232a"/>
    </linearGradient>
    <linearGradient id="_Безымянный_градиент_7-2" data-name="Безымянный градиент 7" x1="136.71" y1="51.17" x2="401.66" y2="51.17" xlink:href="#_Безымянный_градиент_7"/>
  </defs>
  <g id="_Слой_1-2" data-name="Слой 1">
    <path class="cls-1" d="m0,141.49s3.53-8.37,11.68-8.81c5.88-.32,134.44-4.19,214.35-4.2h0s.02,0,.02,0c17.57,0,32.77.19,43.81.64,29.29.36,69.76.74,110.43.74,77.46,0,91.72,18.05,91.72,18.05,0,0-16.22-38.92-189.72-38.92h-59.95s-34.97-33.22-40.87-35.03c0,0,56.93-1.55,78.66,7.61,21.73,9.16,41.1,16.49,41.1,16.49,0,0-26.01-13.6-43.69-20.95-17.68-7.34-59.04-7.34-59.04-7.34,0,0-51.35-.58-71.08,5.29-24.98,7.42-75.06,32.78-85.93,39.7-10.87,6.92-19.99,12.21-29.05,12.69-9.06.48-10.49,5.42-10.8,6.21-.32.78-1.64,7.84-1.64,7.84Zm61.67-29.35c7.75-4.88,66.25-40.43,100.51-32.53,16.44,3.79,48.3,39.74,48.3,39.74H72.22c-2.28,0-4.54-.51-6.6-1.5l-3.7-1.77c-1.6-.76-1.74-2.99-.25-3.93Z"/>
    <path class="cls-1" d="m199.8,115.22c-1.92-5.27-7.43-9.22-14.14-9.46l-10.46-.38c-5.49-.2-10.08,3.5-10.25,8.26v.32s34.85,1.26,34.85,1.26Z"/>
    <path class="cls-3" d="m51.72,139.28h0c5.09,0,8.95,4.6,8.05,9.62l-4.35,24.41h-10.12l3.42-19.01-12.81,13.57h-5.62l-7.74-13.13-3.35,18.57h-10.12l4.52-25.33c.9-5.03,5.27-8.69,10.38-8.69h0l10.62,18.42,17.11-18.42Zm48.7,8.31h-24.69l-.87,4.81h22.75l-1.21,7.1h-22.8l-.97,5.49h25.23l-1.51,8.31h-35.97l4.61-26.02c.82-4.63,4.84-8,9.55-8h27.35l-1.46,8.31Zm39.22-8.31l-1.6,9.28h-22.75l-4.41,24.74h-10.71l4.97-27.99c.62-3.49,3.66-6.04,7.2-6.04h27.29Zm21.05,34.02l-1.56-5.49h-17.99l-3.5,5.49h-12.35l23.44-34.02h12.2l11.33,34.02h-11.57Zm-15.51-12.93h11.86l-3.45-12.2-8.41,12.2Z"/>
    <g>
      <path class="cls-1" d="m260.96,141.32c3.34,0,5.74.87,7.19,2.63,1.46,1.75,1.88,4.31,1.26,7.68l-1.85,10.3c-.62,3.37-1.77,5.77-3.45,7.19-1.69,1.43-4.2,2.14-7.53,2.14h-12.28l-.71,3.99h-9.97l.71-3.99h-11.33c-3.34,0-5.74-.87-7.19-2.62s-1.88-4.31-1.26-7.68l1.85-10.3c.62-3.37,1.77-5.77,3.45-7.19,1.68-1.43,4.2-2.14,7.53-2.14h12.28l.71-3.99h9.97l-.71,3.99h11.32Zm-32.77,22.16h7.53l2.56-14.39h-7.81c-1.13,0-1.95.22-2.45.66-.5.44-.87,1.24-1.09,2.41l-1.41,8.12c-.23,1.17-.13,1.99.29,2.48.42.49,1.22.73,2.38.73Zm30.32-11.18c.19-1.17.08-1.99-.34-2.48-.42-.49-1.2-.73-2.33-.73h-7.58l-2.56,14.39h7.81c1.17,0,2-.22,2.5-.66.5-.44.85-1.24,1.04-2.41l1.46-8.12Z"/>
      <path class="cls-1" d="m270.02,173.3l5.08-28.41c.58-3.25,3.41-5.62,6.71-5.62h24c6.19,0,8.75,3.11,7.68,9.33l-1.17,6.61c-.52,3.11-1.51,5.28-2.97,6.51-1.46,1.23-3.74,1.85-6.85,1.85h-20.03l-1.74,9.72h-10.71Zm13.84-17.45h15.18c.97,0,1.66-.18,2.07-.53.4-.36.69-1.04.85-2.04l.58-3.21c.16-1,.07-1.7-.27-2.09s-1.01-.58-2.02-.58h-14.87l-1.52,8.46Z"/>
      <path class="cls-1" d="m341.14,173.3l-1.56-5.49h-17.99l-3.5,5.49h-12.35l23.44-34.02h12.2l11.32,34.02h-11.57Zm-15.51-12.93h11.86l-3.45-12.2-8.41,12.2Z"/>
      <path class="cls-1" d="m390.55,139.28h0c5.58,0,9.8,5.05,8.82,10.54l-4.22,23.48h-10.71l2.32-12.93h-18.65l-2.32,12.93h-10.71l6.11-34.02h0c5.58,0,9.8,5.05,8.82,10.54l-.22,1.22h18.65l2.11-11.76Z"/>
      <path class="cls-1" d="m400.24,173.3l6.06-34.02h0c5.58,0,9.81,5.05,8.83,10.54l-2.54,14.2h18.66l4.41-24.74h0c5.58,0,9.81,5.05,8.83,10.54l-2.53,14.2h5.05l-2.72,15.12h-10l1.07-5.83h-35.12Z"/>
    </g>
    <path class="cls-2" d="m379.81,93.72l21.49-15.15c.38-.26.47-.78.21-1.16,0,0,0-.01-.01-.02l-15.49-21.19c-.18-.23-.41-.32-.69-.25l-26.83,6.38c-.52.13-1.08-.02-1.47-.39-13.22-12.43-28.46-22.09-45.74-29-.25-.1-.33-.27-.23-.52l9.1-24.42c.15-.42,0-.64-.44-.66-1.88-.11-3.49-.74-5.3-1.18-7.44-1.87-14.71-3.7-21.81-5.49-.52-.13-1.07.03-1.43.43l-17.13,19.15c-.33.37-.83.53-1.31.42-1.37-.33-2.8-.59-4.29-.8-14.92-2.04-29.67-2.52-44.24-1.44-.36.02-.69-.21-.78-.57l-4.58-17.33c-.12-.44-.4-.61-.83-.5l-24.78,5.87c-.45.11-.73.38-.86.83-1.69,6.03-3.31,11.94-4.87,17.73-.21.76-.48,1.51-.81,2.23-.11.22-.27.37-.5.45-1.48.54-33.55,18.24-49.48,40.56,3.04-2.25,6.17-4.4,9.39-6.43,13.83-8.71,28.55-15.04,44.17-19,1.32-.33,2.65-.6,3.99-.8,1.8-.26,3.48-.88,5.3-1.21,18.63-3.5,37.35-3.55,56.16-.15,11.08,2,21.49,5.03,31.24,9.08,23.88,9.91,44.09,25.54,57.04,47.29.16.27.44.46.76.5l39.88,5.37c.25.04.32-.06.21-.28-1.43-2.9-3.14-5.48-5.11-7.73-.15-.17-.13-.42.04-.57.01-.01.02-.02.04-.03Z"/>
    <polygon class="cls-1" points="203.49 159.42 176.94 159.42 180.18 152.66 206.72 152.66 203.49 159.42"/>
  </g>
</svg>