<svg width="176" height="68" viewBox="0 0 176 68" fill="none" xmlns="http://www.w3.org/2000/svg">
<g id="logo_mega_france 1" clip-path="url(#clip0_11_316)">
<g id="&#208;&#161;&#208;&#187;&#208;&#190;&#208;&#185; 1">
<path id="Vector" d="M0 52.8035C0 52.8035 1.31624 49.6798 4.35516 49.5156C6.54766 49.3962 54.4843 47.9519 84.2806 47.9482H84.288C90.8394 47.9482 96.5071 48.0191 100.624 48.187C111.545 48.3214 126.635 48.4632 141.8 48.4632C170.683 48.4632 176 55.1994 176 55.1994C176 55.1994 169.952 40.6746 105.258 40.6746H82.9047C82.9047 40.6746 69.8653 28.277 67.6653 27.6016C67.6653 27.6016 88.893 27.0231 96.9956 30.4416C105.098 33.86 112.321 36.5956 112.321 36.5956C112.321 36.5956 102.622 31.5201 96.0298 28.7771C89.4374 26.0379 74.0154 26.0379 74.0154 26.0379C74.0154 26.0379 54.8683 25.8214 47.5115 28.0121C38.1972 30.7812 19.5237 40.2454 15.4705 42.8279C11.4174 45.4105 8.01678 47.3847 4.63855 47.5638C1.26031 47.7429 0.727103 49.5865 0.611512 49.8813C0.492193 50.1724 0 52.8072 0 52.8072L0 52.8035ZM22.9951 41.8502C25.8849 40.029 47.698 26.7619 60.4726 29.7101C66.6027 31.1245 78.4824 44.5409 78.4824 44.5409H26.9289C26.0788 44.5409 25.2361 44.3506 24.468 43.9811L23.0883 43.3206C22.4917 43.0369 22.4395 42.2047 22.9951 41.8539V41.8502Z" fill="#F7F7F7"/>
<path id="Vector_2" d="M74.5001 42.9996C73.7842 41.0329 71.7297 39.5588 69.2277 39.4692L65.3274 39.3274C63.2804 39.2527 61.5689 40.6336 61.5055 42.41V42.5294L74.5001 42.9996Z" fill="#F7F7F7"/>
<g id="Group">
<path id="Vector_3" d="M19.3186 51.6466C21.4067 51.6466 22.9876 53.5349 22.6222 55.595L20.8362 65.6115H16.6898L18.0918 57.8118L12.8418 63.3798H10.5374L7.36424 57.9909L5.99207 65.6115H1.83826L3.69144 55.2143C4.06058 53.1505 5.85037 51.6503 7.94592 51.6503L12.3011 59.2075L19.3148 51.6503L19.3186 51.6466ZM39.2859 55.0576H29.1624L28.8045 57.0318H38.13L37.6304 59.9427H28.2824L27.8835 62.1968H38.227L37.608 65.6078H22.8609L24.7513 54.9307C25.0869 53.0311 26.7387 51.6466 28.6665 51.6466H39.8825L39.2859 55.0576ZM55.368 51.6466L54.7117 55.4569H45.3861L43.5814 65.6078H39.189L41.2286 54.1246C41.4822 52.6915 42.7276 51.6466 44.1818 51.6466H55.3717H55.368ZM64 65.6078L63.3624 63.3537H55.9869L54.5514 65.6078H49.4878L59.0967 51.6466H64.0969L68.7392 65.6078H63.9963H64ZM57.6388 60.301H62.501L61.0878 55.2927L57.6388 60.301Z" fill="url(#paint0_linear_11_316)"/>
<path id="Vector_4" d="M88.4157 52.4825C89.7842 52.4825 90.7686 52.8408 91.3652 53.5611C91.9618 54.2776 92.137 55.33 91.8835 56.7108L91.1265 60.9391C90.873 62.3237 90.4032 63.3052 89.7134 63.8911C89.0235 64.477 87.9907 64.7681 86.626 64.7681H81.5922L81.3013 66.4027H77.2146L77.5055 64.7681H72.8632C71.4948 64.7681 70.5104 64.4099 69.9138 63.6896C69.3172 62.9693 69.1419 61.9206 69.3955 60.5398L70.1524 56.3115C70.406 54.9269 70.8758 53.9454 71.5656 53.3595C72.2554 52.7736 73.2845 52.4825 74.653 52.4825H79.6868L79.9776 50.8479H84.0643L83.7735 52.4825H88.4157ZM74.9774 61.5773H78.0648L79.1163 55.6733H75.9133C75.4472 55.6733 75.1116 55.7629 74.9065 55.942C74.7015 56.1212 74.5523 56.4496 74.4591 56.931L73.8811 60.2599C73.7879 60.7376 73.8289 61.0772 74.0005 61.2787C74.172 61.4765 74.5001 61.5773 74.9774 61.5773ZM87.409 56.9907C87.4873 56.513 87.4426 56.1734 87.271 55.9719C87.0995 55.7704 86.7788 55.6733 86.3127 55.6733H83.203L82.1515 61.5773H85.3545C85.8317 61.5773 86.1748 61.4877 86.3799 61.3086C86.5849 61.1295 86.7304 60.801 86.8087 60.3196L87.4053 56.9907H87.409Z" fill="#F7F7F7"/>
<path id="Vector_5" d="M92.1332 65.6078L94.2139 53.9492C94.4525 52.6169 95.6121 51.6428 96.9657 51.6428H106.806C109.345 51.6428 110.393 52.9191 109.953 55.4718L109.476 58.1849C109.263 59.4613 108.857 60.3532 108.26 60.857C107.663 61.3608 106.724 61.6146 105.449 61.6146H97.2379L96.522 65.6041H92.1295L92.1332 65.6078ZM97.8084 58.4462H104.032C104.431 58.4462 104.714 58.3715 104.878 58.226C105.046 58.0804 105.161 57.8006 105.229 57.3863L105.467 56.0689C105.534 55.6584 105.497 55.371 105.359 55.2106C105.221 55.0501 104.945 54.9717 104.531 54.9717H98.4348L97.8121 58.4424L97.8084 58.4462Z" fill="#F7F7F7"/>
<path id="Vector_6" d="M121.292 65.6078L120.654 63.3537H113.279L111.843 65.6078H106.78L116.389 51.6466H121.393L126.035 65.6078H121.292ZM114.931 60.301H119.793L118.38 55.2927L114.931 60.301Z" fill="#F7F7F7"/>
<path id="Vector_7" d="M141.55 51.6466C143.84 51.6466 145.57 53.7178 145.167 55.9719L143.437 65.6078H139.045L139.995 60.301H132.351L131.401 65.6078H127.008L129.514 51.6466C131.803 51.6466 133.533 53.7178 133.131 55.9719L133.041 56.472H140.685L141.55 51.6466Z" fill="#F7F7F7"/>
<path id="Vector_8" d="M145.521 65.6078L148.005 51.6466C150.294 51.6466 152.024 53.7178 151.622 55.9719L150.581 61.7975H158.233L160.037 51.6466C162.327 51.6466 164.061 53.7178 163.658 55.9719L162.621 61.7975H164.694L163.58 68H159.482L159.918 65.6078H145.518H145.521Z" fill="#F7F7F7"/>
</g>
<path id="Vector_9" d="M141.621 34.9759L149.634 29.322C149.776 29.225 149.809 29.0309 149.712 28.8891C149.712 28.8891 149.712 28.8853 149.709 28.8816L143.933 20.9736C143.866 20.8878 143.78 20.8542 143.676 20.8803L133.671 23.2613C133.478 23.3098 133.269 23.2538 133.123 23.1157C128.194 18.4769 122.511 14.8718 116.068 12.2931C115.975 12.2557 115.945 12.1923 115.982 12.099L119.375 2.98556C119.431 2.82882 119.375 2.74672 119.211 2.73925C118.51 2.6982 117.91 2.46309 117.235 2.29888C114.461 1.60101 111.75 0.918059 109.103 0.250038C108.909 0.201523 108.704 0.261234 108.57 0.410513L102.182 7.55721C102.059 7.69529 101.873 7.75501 101.694 7.71395C101.183 7.5908 100.65 7.49377 100.094 7.4154C94.5309 6.65408 89.031 6.47494 83.5982 6.878C83.464 6.88546 83.3409 6.79962 83.3074 6.66527L81.5996 0.197791C81.5549 0.0335849 81.4505 -0.0298583 81.2901 0.0111932L72.0503 2.20185C71.8825 2.2429 71.7781 2.34367 71.7297 2.5116C71.0995 4.76198 70.4954 6.96756 69.9138 9.12837C69.8355 9.41199 69.7348 9.69189 69.6117 9.96059C69.5707 10.0427 69.5111 10.0987 69.4253 10.1285C68.8734 10.3301 56.9154 16.9356 50.9755 25.2654C52.1091 24.4257 53.2762 23.6233 54.4768 22.8657C59.6336 19.6152 65.1223 17.2528 70.9466 15.775C71.4388 15.6518 71.9347 15.5511 72.4344 15.4764C73.1056 15.3794 73.732 15.148 74.4106 15.0249C81.3573 13.7187 88.3374 13.7 95.3512 14.9689C99.4826 15.7153 103.364 16.8461 107 18.3575C115.904 22.0559 123.44 27.8889 128.268 36.0059C128.328 36.1067 128.433 36.1776 128.552 36.1925L143.422 38.1966C143.515 38.2115 143.541 38.1742 143.5 38.0921C142.967 37.0098 142.33 36.047 141.595 35.2073C141.539 35.1438 141.546 35.0505 141.61 34.9946C141.614 34.9908 141.617 34.9871 141.625 34.9834L141.621 34.9759Z" fill="url(#paint1_linear_11_316)"/>
</g>
</g>
<defs>
<linearGradient id="paint0_linear_11_316" x1="-12.0028" y1="58.6291" x2="72.9601" y2="58.6291" gradientUnits="userSpaceOnUse">
<stop stop-color="#F05A30"/>
<stop offset="0.5" stop-color="#EC1C24"/>
<stop offset="1" stop-color="#D0232A"/>
</linearGradient>
<linearGradient id="paint1_linear_11_316" x1="50.9755" y1="19.0964" x2="149.768" y2="19.0964" gradientUnits="userSpaceOnUse">
<stop stop-color="#F05A30"/>
<stop offset="0.5" stop-color="#EC1C24"/>
<stop offset="1" stop-color="#D0232A"/>
</linearGradient>
<clipPath id="clip0_11_316">
<rect width="176" height="68" fill="white"/>
</clipPath>
</defs>
</svg>
