<svg width="87" height="15" viewBox="0 0 87 15" fill="none" xmlns="http://www.w3.org/2000/svg">
<g id="Group 29">
<path id="Star 1" d="M7.02447 1.46353C7.17415 1.00287 7.82585 1.00287 7.97553 1.46353L9.0716 4.83688C9.13854 5.04289 9.33051 5.18237 9.54713 5.18237H13.0941C13.5784 5.18237 13.7798 5.80218 13.388 6.08688L10.5184 8.17173C10.3432 8.29905 10.2699 8.52474 10.3368 8.73075L11.4329 12.1041C11.5825 12.5648 11.0553 12.9478 10.6634 12.6631L7.79389 10.5783C7.61865 10.4509 7.38135 10.4509 7.20611 10.5783L4.33656 12.6631C3.9447 12.9478 3.41746 12.5648 3.56714 12.1041L4.66321 8.73075C4.73015 8.52474 4.65682 8.29905 4.48157 8.17173L1.61203 6.08688C1.22017 5.80218 1.42156 5.18237 1.90592 5.18237H5.45287C5.66949 5.18237 5.86146 5.04289 5.9284 4.83688L7.02447 1.46353Z" fill="#F70000"/>
<path id="Star 2" d="M25.0245 1.46353C25.1741 1.00287 25.8259 1.00287 25.9755 1.46353L27.0716 4.83688C27.1385 5.04289 27.3305 5.18237 27.5471 5.18237H31.0941C31.5784 5.18237 31.7798 5.80218 31.388 6.08688L28.5184 8.17173C28.3432 8.29905 28.2699 8.52474 28.3368 8.73075L29.4329 12.1041C29.5825 12.5648 29.0553 12.9478 28.6634 12.6631L25.7939 10.5783C25.6186 10.4509 25.3814 10.4509 25.2061 10.5783L22.3366 12.6631C21.9447 12.9478 21.4175 12.5648 21.5671 12.1041L22.6632 8.73075C22.7301 8.52474 22.6568 8.29905 22.4816 8.17173L19.612 6.08688C19.2202 5.80218 19.4216 5.18237 19.9059 5.18237H23.4529C23.6695 5.18237 23.8615 5.04289 23.9284 4.83688L25.0245 1.46353Z" fill="#F70000"/>
<path id="Star 3" d="M43.0245 1.46353C43.1741 1.00287 43.8259 1.00287 43.9755 1.46353L45.0716 4.83688C45.1385 5.04289 45.3305 5.18237 45.5471 5.18237H49.0941C49.5784 5.18237 49.7798 5.80218 49.388 6.08688L46.5184 8.17173C46.3432 8.29905 46.2699 8.52474 46.3368 8.73075L47.4329 12.1041C47.5825 12.5648 47.0553 12.9478 46.6634 12.6631L43.7939 10.5783C43.6186 10.4509 43.3814 10.4509 43.2061 10.5783L40.3366 12.6631C39.9447 12.9478 39.4175 12.5648 39.5671 12.1041L40.6632 8.73075C40.7301 8.52474 40.6568 8.29905 40.4816 8.17173L37.612 6.08688C37.2202 5.80218 37.4216 5.18237 37.9059 5.18237H41.4529C41.6695 5.18237 41.8615 5.04289 41.9284 4.83688L43.0245 1.46353Z" fill="#F70000"/>
<path id="Star 4" d="M61.0245 1.46353C61.1741 1.00287 61.8259 1.00287 61.9755 1.46353L63.0716 4.83688C63.1385 5.04289 63.3305 5.18237 63.5471 5.18237H67.0941C67.5784 5.18237 67.7798 5.80218 67.388 6.08688L64.5184 8.17173C64.3432 8.29905 64.2699 8.52474 64.3368 8.73075L65.4329 12.1041C65.5825 12.5648 65.0553 12.9478 64.6634 12.6631L61.7939 10.5783C61.6186 10.4509 61.3814 10.4509 61.2061 10.5783L58.3366 12.6631C57.9447 12.9478 57.4175 12.5648 57.5671 12.1041L58.6632 8.73075C58.7301 8.52474 58.6568 8.29905 58.4816 8.17173L55.612 6.08688C55.2202 5.80218 55.4216 5.18237 55.9059 5.18237H59.4529C59.6695 5.18237 59.8615 5.04289 59.9284 4.83688L61.0245 1.46353Z" fill="#F70000"/>
<path id="Star 5" d="M79.0245 1.46353C79.1741 1.00287 79.8259 1.00287 79.9755 1.46353L81.0716 4.83688C81.1385 5.04289 81.3305 5.18237 81.5471 5.18237H85.0941C85.5784 5.18237 85.7798 5.80218 85.388 6.08688L82.5184 8.17173C82.3432 8.29905 82.2699 8.52474 82.3368 8.73075L83.4329 12.1041C83.5825 12.5648 83.0553 12.9478 82.6634 12.6631L79.7939 10.5783C79.6186 10.4509 79.3814 10.4509 79.2061 10.5783L76.3366 12.6631C75.9447 12.9478 75.4175 12.5648 75.5671 12.1041L76.6632 8.73075C76.7301 8.52474 76.6568 8.29905 76.4816 8.17173L73.612 6.08688C73.2202 5.80218 73.4216 5.18237 73.9059 5.18237H77.4529C77.6695 5.18237 77.8615 5.04289 77.9284 4.83688L79.0245 1.46353Z" fill="#F70000"/>
</g>
</svg>
