<svg width="15" height="15" viewBox="0 0 15 15" fill="none" xmlns="http://www.w3.org/2000/svg">
  <g id="Group 29">
    <path id="Star 1"
      d="M7.02447 1.46353C7.17415 1.00287 7.82585 1.00287 7.97553 1.46353L9.0716 4.83688C9.13854 5.04289 9.33051 5.18237 9.54713 5.18237H13.0941C13.5784 5.18237 13.7798 5.80218 13.388 6.08688L10.5184 8.17173C10.3432 8.29905 10.2699 8.52474 10.3368 8.73075L11.4329 12.1041C11.5825 12.5648 11.0553 12.9478 10.6634 12.6631L7.79389 10.5783C7.61865 10.4509 7.38135 10.4509 7.20611 10.5783L4.33656 12.6631C3.9447 12.9478 3.41746 12.5648 3.56714 12.1041L4.66321 8.73075C4.73015 8.52474 4.65682 8.29905 4.48157 8.17173L1.61203 6.08688C1.22017 5.80218 1.42156 5.18237 1.90592 5.18237H5.45287C5.66949 5.18237 5.86146 5.04289 5.9284 4.83688L7.02447 1.46353Z"
      fill="#F70000" />
  </g>
</svg>