<svg width="176" height="69" viewBox="0 0 176 69" fill="none" xmlns="http://www.w3.org/2000/svg">
<g id="logo_mega_france4 1" clip-path="url(#clip0_23_426)">
<g id="&#208;&#161;&#208;&#187;&#208;&#190;&#208;&#185; 1">
<path id="Vector" d="M0 54.5013C0 54.5013 1.31624 51.2772 4.35516 51.1077C6.54766 50.9844 54.4843 49.4937 84.2806 49.4899H84.288C90.8394 49.4899 96.5071 49.563 100.624 49.7364C111.545 49.8751 126.635 50.0214 141.8 50.0214C170.683 50.0214 176 56.9742 176 56.9742C176 56.9742 169.952 41.9824 105.258 41.9824H82.9047C82.9047 41.9824 69.8653 29.1862 67.6653 28.489C67.6653 28.489 88.893 27.892 96.9956 31.4204C105.098 34.9487 112.321 37.7722 112.321 37.7722C112.321 37.7722 102.622 32.5336 96.0298 29.7024C89.4374 26.8751 74.0154 26.8751 74.0154 26.8751C74.0154 26.8751 54.8683 26.6516 47.5115 28.9127C38.1972 31.7709 19.5237 41.5394 15.4705 44.205C11.4174 46.8705 8.01678 48.9082 4.63855 49.0931C1.26031 49.278 0.727103 51.1809 0.611512 51.4852C0.492193 51.7856 0 54.5051 0 54.5051L0 54.5013ZM22.9951 43.1958C25.8849 41.316 47.698 27.6223 60.4726 30.6654C66.6027 32.1253 78.4824 45.973 78.4824 45.973H26.9289C26.0788 45.973 25.2361 45.7766 24.468 45.3952L23.0883 44.7134C22.4917 44.4207 22.4395 43.5617 22.9951 43.1996V43.1958Z" fill="#1F1F1F"/>
<path id="Vector_2" d="M74.5 44.3822C73.7841 42.3522 71.7296 40.8307 69.2276 40.7382L65.3273 40.5918C63.2802 40.5148 61.5688 41.94 61.5054 43.7736V43.8968L74.5 44.3822Z" fill="#1F1F1F"/>
<path id="Vector_3" d="M19.2851 53.65C21.183 53.65 22.6223 55.4219 22.2867 57.3555L20.6647 66.7582H16.8912L18.1664 59.4356L13.3899 64.6627H11.2944L8.40835 59.6051L7.15922 66.7582H3.38574L5.07113 57.0012C5.40672 55.0636 7.03617 53.6538 8.94156 53.6538L12.9015 60.7491L19.2813 53.6538L19.2851 53.65ZM37.444 56.8509H28.2378L27.9134 58.7037H36.3962L35.9451 61.4386H27.4435L27.0818 63.5533H36.4894L35.9264 66.7543H22.5142L24.2331 56.7315C24.5389 54.9481 26.0378 53.65 27.794 53.65H37.9921L37.4477 56.8509H37.444ZM52.0681 53.65L51.4715 57.2246H42.9886L41.3443 66.7543H37.3508L39.204 55.9727C39.4351 54.6284 40.5687 53.6461 41.8887 53.6461H52.0644L52.0681 53.65ZM59.9171 66.7543L59.3354 64.6396H52.6274L51.3224 66.7543H46.7174L55.4575 53.65H60.0066L64.2312 66.7543H59.9171ZM54.1338 61.7737H58.5561L57.2697 57.0744L54.1338 61.7737Z" fill="url(#paint0_linear_23_426)"/>
<g id="Group">
<path id="Vector_4" d="M97.3049 54.4358C98.5503 54.4358 99.4452 54.7709 99.9859 55.4488C100.53 56.1229 100.687 57.109 100.456 58.4071L99.7659 62.3746C99.5347 63.6727 99.1059 64.5972 98.4795 65.1442C97.8493 65.695 96.9134 65.9685 95.6718 65.9685H91.0929L90.8281 67.5054H87.1106L87.3753 65.9685H83.1507C81.9053 65.9685 81.0104 65.6334 80.4697 64.9593C79.929 64.2852 79.7687 63.2991 79.9999 62.001L80.6897 58.0335C80.9209 56.7354 81.3497 55.8109 81.9761 55.2639C82.6025 54.7131 83.5422 54.4396 84.7839 54.4396H89.3627L89.6275 52.9027H93.345L93.0803 54.4396H97.3012L97.3049 54.4358ZM85.0859 62.9717H87.8936L88.8482 57.4287H85.936C85.5147 57.4287 85.2089 57.5135 85.0225 57.683C84.8361 57.8524 84.6981 58.1606 84.6161 58.6113L84.0903 61.7391C84.0045 62.1897 84.0418 62.5056 84.1984 62.6943C84.355 62.8831 84.6533 62.9755 85.0859 62.9755V62.9717ZM96.3914 58.6652C96.4623 58.2145 96.4212 57.8987 96.2646 57.7099C96.108 57.5212 95.8172 57.4287 95.3958 57.4287H92.5694L91.6149 62.9717H94.527C94.9633 62.9717 95.2728 62.8869 95.4592 62.7175C95.6457 62.548 95.7762 62.2398 95.847 61.7891L96.3914 58.6613V58.6652Z" fill="#1F1F1F"/>
<path id="Vector_5" d="M100.683 66.7543L102.577 55.8109C102.794 54.559 103.849 53.6461 105.079 53.6461H114.028C116.336 53.6461 117.291 54.8441 116.892 57.24L116.456 59.7861C116.262 60.9841 115.893 61.82 115.348 62.2937C114.804 62.7675 113.954 63.0064 112.794 63.0064H105.325L104.677 66.7505H100.683V66.7543ZM105.844 60.0327H111.504C111.866 60.0327 112.123 59.9633 112.276 59.8285C112.425 59.6898 112.533 59.4279 112.593 59.0427L112.809 57.8062C112.869 57.421 112.835 57.1514 112.708 57.0012C112.581 56.8509 112.332 56.7778 111.955 56.7778H106.41L105.844 60.0365V60.0327Z" fill="#1F1F1F"/>
<path id="Vector_6" d="M127.202 66.7543L126.62 64.6396H119.912L118.607 66.7543H114.002L122.742 53.65H127.291L131.512 66.7543H127.198H127.202ZM121.419 61.7737H125.841L124.555 57.0743L121.419 61.7737Z" fill="#1F1F1F"/>
<path id="Vector_7" d="M145.626 53.65C147.706 53.65 149.28 55.5952 148.914 57.7099L147.341 66.7543H143.347L144.213 61.7737H137.258L136.393 66.7543H132.4L134.678 53.65C136.759 53.65 138.332 55.5952 137.967 57.7099L137.885 58.1799H144.839L145.626 53.65Z" fill="#1F1F1F"/>
<path id="Vector_8" d="M149.239 66.7543L151.498 53.65C153.579 53.65 155.156 55.5952 154.791 57.7099L153.844 63.1797H160.802L162.446 53.65C164.527 53.65 166.104 55.5952 165.738 57.7099L164.795 63.1797H166.678L165.664 69.0038H161.935L162.334 66.7582H149.239V66.7543Z" fill="#1F1F1F"/>
</g>
<path id="Vector_9" d="M141.621 36.1005L149.634 30.2648C149.776 30.1647 149.809 29.9644 149.712 29.818C149.712 29.818 149.712 29.8141 149.709 29.8103L143.933 21.648C143.866 21.5594 143.78 21.5247 143.676 21.5517L133.671 24.0092C133.478 24.0593 133.269 24.0015 133.123 23.859C128.194 19.071 122.511 15.3501 116.068 12.6884C115.975 12.6498 115.945 12.5844 115.982 12.4881L119.375 3.08159C119.431 2.91981 119.375 2.83506 119.211 2.82736C118.51 2.78499 117.91 2.54231 117.235 2.37283C114.461 1.65251 111.75 0.947607 109.103 0.258108C108.909 0.208033 108.704 0.269664 108.57 0.423742L102.182 7.80023C102.059 7.94275 101.873 8.00438 101.694 7.96201C101.183 7.8349 100.65 7.73475 100.094 7.65385C94.5309 6.86806 89.031 6.68316 83.5983 7.09917C83.464 7.10688 83.341 7.01828 83.3074 6.87961L81.5997 0.204181C81.5549 0.0346947 81.4505 -0.0307884 81.2902 0.011583L72.0504 2.27268C71.8826 2.31505 71.7782 2.41905 71.7297 2.59239C71.0996 4.91512 70.4955 7.19162 69.9138 9.4219C69.8355 9.71465 69.7348 10.0035 69.6118 10.2809C69.5708 10.3656 69.5111 10.4234 69.4254 10.4542C68.8735 10.6622 56.9155 17.4802 50.9756 26.0777C52.1091 25.211 53.2762 24.3829 54.4769 23.6009C59.6337 20.2459 65.1224 17.8076 70.9467 16.2822C71.4389 16.1551 71.9348 16.0511 72.4344 15.9741C73.1056 15.8739 73.732 15.6351 74.4107 15.508C81.3573 14.1598 88.3375 14.1405 95.3513 15.4502C99.4827 16.2206 103.364 17.3877 107 18.9478C115.904 22.7651 123.44 28.7857 128.269 37.1637C128.328 37.2677 128.433 37.3408 128.552 37.3563L143.422 39.4247C143.515 39.4402 143.541 39.4016 143.5 39.3169C142.967 38.1998 142.33 37.206 141.595 36.3393C141.539 36.2738 141.547 36.1776 141.61 36.1198C141.614 36.1159 141.617 36.1121 141.625 36.1082L141.621 36.1005Z" fill="url(#paint1_linear_23_426)"/>
<path id="Vector_10" d="M75.8761 61.4078H65.9763L67.1844 58.8039H77.0805L75.8761 61.4078Z" fill="#1F1F1F"/>
</g>
</g>
<defs>
<linearGradient id="paint0_linear_23_426" x1="-9.20247" y1="60.2021" x2="68.0718" y2="60.2021" gradientUnits="userSpaceOnUse">
<stop stop-color="#F05A30"/>
<stop offset="0.5" stop-color="#EC1C24"/>
<stop offset="1" stop-color="#D0232A"/>
</linearGradient>
<linearGradient id="paint1_linear_23_426" x1="50.9756" y1="19.7105" x2="149.768" y2="19.7105" gradientUnits="userSpaceOnUse">
<stop stop-color="#F05A30"/>
<stop offset="0.5" stop-color="#EC1C24"/>
<stop offset="1" stop-color="#D0232A"/>
</linearGradient>
<clipPath id="clip0_23_426">
<rect width="176" height="69" fill="white"/>
</clipPath>
</defs>
</svg>
